<?xml version="1.0" encoding="utf-8"?>
<!-- Generator: Adobe Illustrator 19.0.0, SVG Export Plug-In . SVG Version: 6.00 Build 0)  -->
<svg version="1.1" id="Layer_1" xmlns="http://www.w3.org/2000/svg" xmlns:xlink="http://www.w3.org/1999/xlink" x="0px" y="0px"
	 viewBox="94 -4 800 800" style="enable-background:new 94 -4 800 800;" xml:space="preserve">
<style type="text/css">
	.st0{fill:#FCFCFC;}
</style>
<title>product-management</title>
<g id="Page-1">
	<g id="icon" transform="translate(42.666667, 34.346667)">
		<path id="Combined-Shape" class="st0" d="M784,588.7c0.4,1.7,0.6,3.4,0.6,5.1l0,1.1v33.3c0,36.8-67.2,66.7-150,66.7
			c-82,0-148.7-29.3-150-65.6l0-1.1V595l0-1.1c0.1-1.7,0.3-3.4,0.6-5.1c9.2,6.9,20.4,13.3,33.3,18.7c30.2,12.7,71,20.8,116,20.8
			c46.8,0,89-8.8,119.6-22.4C765.7,600.8,775.7,595,784,588.7z M418,15.3L718,182l0,123c-24.6-6.3-53-10-83.3-10
			c-45.7,0-87,8.4-117.5,22c-41.8,18.6-63,47-65.7,75.7l-0.1,0.9l0.2,269.9L418,682L118,515.3V182L418,15.3z M784,488.7
			c0.4,1.7,0.6,3.4,0.6,5.1l0,1.1v33.3c0,36.8-67.2,66.7-150,66.7c-82,0-148.7-29.3-150-65.6l0-1.1V495l0-1.1
			c0.1-1.7,0.3-3.4,0.6-5.1c9.2,6.9,20.4,13.3,33.3,18.7c30.2,12.7,71,20.8,116,20.8c46.8,0,89-8.8,119.6-22.4
			C765.7,500.8,775.7,495,784,488.7z M318,326.4l0,225.9l66.7,37V363.5L318,326.4z M184.7,252.4v225.9l66.7,37V289.4L184.7,252.4z
			 M634.7,328.3c82,0,148.7,29.3,150,65.6l0,1.1v33.3c0,36.8-67.2,66.7-150,66.7c-82,0-148.7-29.3-150-65.6l0-1.1V395l0.2-3.7
			C489.2,356.2,554.6,328.3,634.7,328.3z M549.2,162.3L353,271.8l65,36.1l196.7-109.3L549.2,162.3z M418,89.4L221.3,198.7l65.1,36.2
			l196.2-109.5L418,89.4z"/>
	</g>
</g>
</svg>
